<svg width="1244" height="263" viewBox="0 0 1244 263" fill="none" xmlns="http://www.w3.org/2000/svg">
<path d="M478.893 29.8404V59.6808L527.956 96.0961L576.514 133.017L562.857 143.133C555.27 148.696 534.026 164.881 515.311 179.042L481.423 205.342L479.905 234.171L478.388 263H496.597C513.794 263 514.3 262.494 514.3 243.781C514.806 226.079 516.829 223.55 559.316 192.192C584.101 173.985 605.85 159.317 607.873 159.317C609.897 159.317 631.646 173.985 656.43 192.192C698.918 223.55 700.941 226.079 701.447 243.781C701.447 262.494 701.953 263 719.15 263H736.853V233.665L736.347 204.837L688.802 169.433C662.5 150.213 640.751 134.029 640.751 133.017C640.751 132.512 662.5 115.315 688.802 95.5904L736.853 59.6808V29.8404V0H719.15C701.953 0 701.447 0.505768 701.447 19.725C701.447 38.4384 699.424 40.9673 656.43 72.8308C632.152 91.0385 609.897 106.212 607.873 106.212C605.85 106.212 583.595 91.0385 559.316 72.8308C516.323 40.9673 514.3 38.4384 514.3 19.725C514.3 0.505768 513.794 0 496.597 0H478.893V29.8404Z" fill="black"/>
<path d="M0.919145 58.646C0.0122486 61.0644 -0.29005 68.0173 0.314548 74.3655L1.22144 86.1552L25.4054 87.6667L49.5893 89.1782L50.4962 149.033L51.1008 208.889L65.6111 207.982L79.8192 207.075L81.3307 148.126L82.8421 89.1782L107.026 87.6667L131.21 86.1552L132.117 72.854C132.721 64.3897 131.815 58.646 129.094 57.1345C126.978 55.623 97.6548 54.4138 63.7973 54.4138C14.2203 54.4138 2.12834 55.3207 0.919145 58.646ZM126.071 71.6448L126.978 81.6207H101.282H75.2847V142.08V202.54H66.2157H57.1467V142.08V81.6207H31.4513H5.75593V73.1563C5.75593 68.3195 6.66282 63.4828 7.87202 62.2736C9.08121 61.3667 35.9858 60.7621 67.4249 61.0644L125.164 61.9713L126.071 71.6448Z" fill="#FF4536"/>
<path d="M167.184 58.646C166.277 61.0643 165.975 68.0172 166.579 74.3655L167.486 86.1552H224.923H282.36V71.0402V55.9253L225.527 55.0184C178.973 54.4138 168.695 55.0184 167.184 58.646ZM277.221 71.6448L278.127 81.6207H225.225H172.021V71.0402V60.4597L224.318 61.0643L276.314 61.9712L277.221 71.6448Z" fill="#FF4536"/>
<path d="M348.866 57.1345C319.845 64.0874 315.613 73.7609 315.613 131.5C315.613 171.706 316.217 178.054 321.659 187.425C332.542 205.866 342.82 208.889 391.188 207.982L433.509 207.075L434.416 195.587C435.928 176.543 433.207 175.333 390.885 175.333C357.028 175.333 353.4 174.729 350.377 169.59C346.447 162.032 346.447 99.7586 350.377 93.7126C352.493 90.0851 362.167 88.8759 393.304 87.6667L433.509 86.1552L434.416 74.6678C435.928 55.9253 432.905 54.4138 393.001 54.7161C373.654 55.0184 354.005 55.9253 348.866 57.1345ZM428.37 71.6448L429.277 81.6207H391.49C340.401 81.6207 341.308 80.7138 341.308 131.198C341.308 182.286 340.401 181.077 389.676 181.984L427.463 182.891L428.37 192.867L429.277 202.843L385.444 201.936C344.331 201.029 341.308 200.726 334.053 193.774C323.17 183.495 318.938 161.428 320.752 122.129C321.961 89.7828 326.798 73.4586 335.867 67.715C343.727 62.8782 359.748 61.0644 392.699 61.3667L427.463 61.9713L428.37 71.6448Z" fill="#FF4536"/>
<path d="M819.638 60.3087C810.569 68.4707 758.876 196.343 761.597 203.598C762.806 206.924 767.038 207.831 777.619 207.226C791.524 206.319 792.431 205.714 798.78 191.809L805.732 177.601H826.893C847.45 177.601 848.054 177.298 848.054 170.043C848.054 166.113 846.543 159.16 844.427 154.928C841.404 147.975 838.381 146.464 823.568 143.743C819.034 142.836 819.336 140.418 825.986 122.28C830.219 111.095 834.451 102.026 835.66 102.026C836.567 102.026 843.52 117.443 850.775 136.186C858.332 154.626 868.006 178.508 872.54 188.786L881.005 207.831H894.911C904.282 207.831 909.119 206.319 910.328 203.296C912.444 198.157 861.96 71.796 853.496 60.9133C845.636 51.2397 830.219 51.2397 819.638 60.3087ZM848.659 64.8432C851.984 69.0753 886.749 151.301 904.584 197.552C906.096 201.482 904.282 202.087 894.911 201.18L883.726 200.273L861.053 143.441C848.357 112.304 836.869 87.2133 835.358 87.5156C833.242 88.4225 808.755 145.255 808.755 149.487C808.755 150.091 814.197 150.394 820.545 150.394C829.614 150.394 833.846 152.208 837.171 157.044C845.636 169.136 843.52 171.252 820.545 172.159L799.082 173.066L793.64 186.67C788.804 199.064 787.292 200.273 777.316 201.18C771.27 201.785 766.434 201.18 766.434 200.273C766.434 195.134 819.034 69.6799 822.963 64.8432C825.684 62.1225 831.428 59.7041 835.962 59.7041C840.497 59.7041 846.24 62.1225 848.659 64.8432Z" fill="#FF4536"/>
<path d="M945.999 57.588C945.092 60.0064 944.79 67.2615 945.395 73.6098L946.302 85.3995L991.646 86.911L1036.99 88.4225V100.514V112.606L991.646 114.118L946.302 115.629V160.974V206.319H959.905H973.508L974.415 176.694L975.322 147.371H992.553H1009.78L1021.57 169.439C1041.83 206.621 1042.73 207.831 1059.97 207.831C1072.96 207.831 1074.78 206.924 1074.78 201.785C1074.78 198.157 1068.73 185.158 1061.18 172.159C1053.62 159.463 1047.57 147.975 1047.57 146.766C1047.57 145.859 1050.29 143.743 1053.92 142.836C1057.25 141.627 1062.69 134.976 1066.01 128.326C1075.99 106.258 1072.36 76.0282 1057.85 62.4248C1050.29 55.4719 1048.18 55.1696 998.902 53.9604C955.673 53.3558 947.511 53.6581 945.999 57.588ZM1044.25 62.4248C1057.85 66.0524 1064.2 79.0512 1064.2 102.026C1064.2 119.559 1062.99 123.791 1057.25 130.14C1053.32 134.372 1046.66 138.604 1042.73 139.511C1035.78 141.325 1035.78 141.627 1050.59 167.02C1072.06 202.994 1071.76 202.389 1057.85 201.18C1046.66 200.273 1045.76 199.366 1029.74 170.648L1013.11 141.325H991.042H968.974V171.555V201.785H959.905H950.836V160.974V120.164H994.065C1023.69 120.164 1038.5 118.955 1040.92 116.536C1046.06 111.397 1045.46 91.1432 1039.71 85.7018C1036.08 81.7719 1027.32 80.865 992.856 80.865H950.836V72.4006C950.836 67.5638 951.743 62.7271 952.952 61.8202C955.37 59.0995 1034.57 59.7041 1044.25 62.4248Z" fill="#FF4536"/>
<path d="M1140.68 56.3788C1114.08 61.8202 1108.03 76.3305 1108.03 131.349C1108.33 200.575 1114.68 207.831 1176.05 207.831C1220.49 207.831 1229.86 204.505 1238.32 184.856C1244.07 172.462 1244.37 166.113 1243.46 126.512C1242.55 78.7489 1240.44 71.4937 1224.42 60.9133C1215.65 55.1696 1160.03 52.1466 1140.68 56.3788ZM1221.39 66.9592C1234.69 75.7259 1238.02 88.7248 1238.02 130.442C1238.02 194.832 1231.97 201.785 1176.05 201.785C1119.82 201.785 1114.08 195.436 1114.08 132.558C1114.08 66.0524 1120.73 59.0995 1182.7 60.9133C1205.67 61.5179 1215.35 63.0294 1221.39 66.9592Z" fill="#FF4536"/>
<path d="M1139.47 87.2132C1134.63 92.6546 1133.73 98.3983 1133.73 130.442C1133.73 181.53 1133.12 180.624 1174.54 180.624C1200.23 180.624 1208.4 179.717 1212.02 175.787C1215.95 172.159 1216.86 163.393 1216.86 131.047C1216.86 79.9581 1217.46 80.865 1175.44 80.865C1148.54 80.865 1144.61 81.4696 1139.47 87.2132ZM1207.19 90.5385C1211.12 94.4684 1212.63 160.672 1209 169.741C1207.49 173.671 1201.44 174.578 1175.75 174.578C1148.54 174.578 1143.7 173.973 1141.89 169.136C1140.68 166.416 1139.77 148.882 1139.77 130.442C1139.77 86.9109 1139.77 86.9109 1175.75 86.9109C1193.28 86.9109 1204.77 88.1201 1207.19 90.5385Z" fill="#FF4536"/>
<path d="M172.625 119.71C166.579 123.943 165.975 126.966 165.975 149.033C165.975 167.171 167.788 177.449 172.021 186.821C180.787 206.168 190.159 208.889 240.945 207.982L282.36 207.075L283.267 192.564C284.778 170.194 282.964 169.287 239.736 169.287C202.25 169.287 201.948 169.287 199.227 161.428C197.414 157.195 196.204 152.359 196.204 150.847C196.204 149.336 213.436 148.126 236.41 148.126C279.941 148.126 283.871 146.917 283.871 132.709C283.871 114.571 284.778 114.874 229.76 114.874C188.949 114.874 178.067 115.78 172.625 119.71ZM276.314 131.5V140.569L235.201 141.476L193.786 142.383L192.275 150.545C191.368 155.079 192.275 162.032 194.088 166.264C197.716 173.52 198.925 173.822 237.015 175.333L276.314 176.845L277.221 189.541L278.127 202.54H240.642C181.996 202.54 174.741 197.703 172.625 154.475C170.811 120.013 169.602 120.617 229.457 121.524L276.314 122.431V131.5Z" fill="#FF4536"/>
</svg>
